<svg xmlns="http://www.w3.org/2000/svg" version="1.1" xmlns:xlink="http://www.w3.org/1999/xlink" xmlns:svgjs="http://svgjs.dev/svgjs" width="1000" height="1000" viewBox="0 0 1000 1000"><rect width="1000" height="1000" fill="#ffffff"></rect><g transform="matrix(0.7,0,0,0.7,150.79266821176833,262.3794819148937)"><svg viewBox="0 0 208 141" data-background-color="#ffffff" preserveAspectRatio="xMidYMid meet" height="677" width="1000" xmlns="http://www.w3.org/2000/svg" xmlns:xlink="http://www.w3.org/1999/xlink"><g id="tight-bounds" transform="matrix(1,0,0,1,-0.2355356972111622,0.19949999999997203)"><svg viewBox="0 0 208.47107139442232 140.60052000000002" height="140.60052000000002" width="208.47107139442232"><g><svg viewBox="0 0 208.47107139442232 140.60052000000002" height="140.60052000000002" width="208.47107139442232"><g><svg viewBox="0 0 208.47107139442232 140.60052000000002" height="140.60052000000002" width="208.47107139442232"><g><path d="M0 140.601v-140.601h208.471v140.601z" fill="#ffffff" stroke="transparent" stroke-width="0" rx="0%" data-fill-palette-color="tertiary"></path><path d="M3.283 137.317v-134.034h201.905v134.034z" fill="#111111" stroke="transparent" stroke-width="0" rx="0%" data-fill-palette-color="quaternary"></path><path d="M9.85 130.751v-120.901h188.771v120.901z" fill="#ffffff" stroke="transparent" stroke-width="0" data-fill-palette-color="tertiary"></path></g><g transform="matrix(1,0,0,1,19.699740000000013,19.69974)" id="textblocktransform"><svg viewBox="0 0 169.0715913944223 101.20104000000002" height="101.20104000000002" width="169.0715913944223" id="textblock"><g><svg viewBox="0 0 169.0715913944223 101.20104000000002" height="101.20104000000002" width="169.0715913944223"><g transform="matrix(1,0,0,1,0,0)"><svg width="169.0715913944223" viewBox="-2.3 -35.3 63.9 38.65" height="101.20104000000002" data-palette-color="#111111"><path d="M17.1-32.05L27.8 0 23.7 0 22.95-3.2 21.15-8.7 13.95-8.85 7.45-8.7 5.5-3.4 4.7 0 0.7 0 12.45-32.05 17.1-32.05ZM14.3-12L20.05-12.1 14.85-27.9 14.5-27.9 8.7-12.1 14.3-12ZM50.5-32.3Q53.95-32.3 57.65-30.8L57.65-30.8 57-26.95 56.3-26.75Q54.84-27.85 53.22-28.45 51.6-29.05 50-29.05L50-29.05Q48.15-29.05 46.77-28.3 45.4-27.55 44.67-26.35 43.95-25.15 43.95-23.85L43.95-23.85Q43.95-22.5 44.77-21.48 45.6-20.45 46.85-19.7 48.1-18.95 50.25-17.9L50.25-17.9Q52.95-16.65 54.59-15.58 56.25-14.5 57.42-12.85 58.6-11.2 58.6-8.85L58.6-8.85Q58.6-6.35 57.25-4.25 55.9-2.15 53.45-0.9 51 0.35 47.85 0.35L47.85 0.35Q45.75 0.35 43.47-0.23 41.2-0.8 39.25-1.9L39.25-1.9 39.75-6 40.3-6.25Q42.05-4.55 44.17-3.73 46.3-2.9 48.25-2.9L48.25-2.9Q50.15-2.9 51.62-3.65 53.1-4.4 53.87-5.65 54.65-6.9 54.65-8.3L54.65-8.3Q54.65-10.4 53.05-11.68 51.45-12.95 48.2-14.45L48.2-14.45Q45.55-15.75 43.95-16.78 42.35-17.8 41.2-19.43 40.05-21.05 40.05-23.4L40.05-23.4Q40.05-25.85 41.37-27.9 42.7-29.95 45.07-31.13 47.45-32.3 50.5-32.3L50.5-32.3Z" opacity="1" transform="matrix(1,0,0,1,0,0)" fill="#111111" class="wordmark-text-0" data-fill-palette-color="quaternary" id="text-0"></path></svg></g></svg></g></svg></g></svg></g><g></g></svg></g><defs></defs></svg><rect width="208.47107139442232" height="140.60052000000002" fill="none" stroke="none" visibility="hidden"></rect></g></svg></g></svg>