<svg xmlns="http://www.w3.org/2000/svg" version="1.1" xmlns:xlink="http://www.w3.org/1999/xlink" xmlns:svgjs="http://svgjs.dev/svgjs" width="1000" height="1000" viewBox="0 0 1000 1000"><rect width="1000" height="1000" fill="#ffffff"></rect><g transform="matrix(0.7,0,0,0.7,149.57575757575756,282.1265587044535)"><svg viewBox="0 0 396 247" data-background-color="#e8772e" preserveAspectRatio="xMidYMid meet" height="623" width="1000" xmlns="http://www.w3.org/2000/svg" xmlns:xlink="http://www.w3.org/1999/xlink"><g id="tight-bounds" transform="matrix(1,0,0,1,0.2400000000000091,-0.09999999999999432)"><svg viewBox="0 0 395.52 247.2" height="247.2" width="395.52"><g><svg></svg></g><g><svg viewBox="0 0 395.52 247.2" height="247.2" width="395.52"><g transform="matrix(1,0,0,1,75.54432000000001,80.17685614497529)"><svg viewBox="0 0 244.43135999999996 86.84628771004941" height="86.84628771004941" width="244.43135999999996"><g><svg viewBox="0 0 244.43135999999996 86.84628771004941" height="86.84628771004941" width="244.43135999999996"><g><svg viewBox="0 0 244.43135999999996 86.84628771004941" height="86.84628771004941" width="244.43135999999996"><g><svg viewBox="0 0 244.43135999999996 86.84628771004941" height="86.84628771004941" width="244.43135999999996"><g id="textblocktransform"><svg viewBox="0 0 244.43135999999996 86.84628771004941" height="86.84628771004941" width="244.43135999999996" id="textblock"><g><svg viewBox="0 0 244.43135999999996 86.84628771004941" height="86.84628771004941" width="244.43135999999996"><g transform="matrix(1,0,0,1,0,0)"><svg width="244.43135999999996" viewBox="0.699999988079071 -32.04999923706055 91.04000091552734 32.349998474121094" height="86.84628771004941" data-palette-color="#111111"><path d="M17.1-32.05L27.8 0 23.7 0 22.95-3.2 21.15-8.7 13.95-8.85 7.45-8.7 5.5-3.4 4.7 0 0.7 0 12.45-32.05 17.1-32.05ZM14.3-12L20.05-12.1 14.85-27.9 14.5-27.9 8.7-12.1 14.3-12ZM42.9-22.95Q43.5-22.95 44.2-22.85L44.2-22.85 44.2-19 43.75-18.85Q42.9-19.1 41.9-19.1L41.9-19.1Q40.25-19.1 38.87-17.78 37.5-16.45 36.15-13.55L36.15-13.55 36.1-10.05 36.35 0 32.4 0 32.65-9.7 32.45-22.65 36.2-23 36.15-18.3 36.45-18.3Q37.85-20.8 39.55-21.88 41.25-22.95 42.9-22.95L42.9-22.95ZM68.65-3.3L69.05-2.95 68.65-0.7Q67.2 0.15 65.8 0.3L65.8 0.3Q64.34 0.1 63.47-0.73 62.59-1.55 62.25-3.2L62.25-3.2 61.95-3.2Q58.95-0.5 55.75 0.3L55.75 0.3Q52.05 0.3 50.12-1.45 48.2-3.2 48.25-6.45L48.25-6.45 48.3-12.8 48.15-22.65 52.15-23 51.84-7.4Q51.84-5.35 52.82-4.2 53.8-3.05 55.7-3.05L55.7-3.05Q58.8-3.05 61.9-6.05L61.9-6.05 61.9-22.65 65.7-23 65.45-4.9Q65.45-3.85 65.77-3.43 66.09-3 66.9-3L66.9-3Q67.7-3 68.65-3.3L68.65-3.3ZM87.74 0L87.99-15.55Q88.04-17.6 87.04-18.75 86.04-19.9 84.09-19.9L84.09-19.9Q80.94-19.9 77.29-16.35L77.29-16.35 77.29-10.05 77.49 0 73.54 0 73.79-9.7 73.59-22.65 77.34-23 77.34-19.65 77.64-19.65Q80.74-22.4 83.99-23.2L83.99-23.2Q87.74-23.2 89.72-21.45 91.69-19.7 91.64-16.45L91.64-16.45 91.54-9.95 91.74 0 87.74 0Z" opacity="1" transform="matrix(1,0,0,1,0,0)" fill="#000000" class="wordmark-text-0" data-fill-palette-color="primary" id="text-0"></path></svg></g></svg></g></svg></g></svg></g></svg></g></svg></g></svg></g><path d="M217.513 74.177L217.513 20.296 10.906 20.296 10.906 226.904 217.513 226.904 217.513 173.023 209.681 173.023 209.681 219.072 18.738 219.072 18.738 28.128 209.681 28.128 209.681 74.177Z" fill="#000000" stroke="transparent" data-fill-palette-color="primary"></path></svg></g><defs></defs></svg><rect width="395.52" height="247.2" fill="none" stroke="none" visibility="hidden"></rect></g></svg></g></svg>